{"title":"Mr. Go 2013 BluRayRip.mp4","uid":9194905,"size":996135846,"categoryP":"video","categoryS":"movies","magnet":"?xt=urn:btih:b825469bafba9f411d4cb356437e8d55dc0364b1&amp;dn=Mr.+Go+2013+BluRayRip.mp4&amp;tr=udp%3A%2F%2Ftracker.openbittorrent.com%3A80&amp;tr=udp%3A%2F%2Fopen.demonii.com%3A1337&amp;tr=udp%3A%2F%2Ftracker.coppersurfer.tk%3A6969&amp;tr=udp%3A%2F%2Fexodus.desync.com%3A6969","seeders":1,"leechers":0,"uploader":"globeplus","files":-1,"time":1384466465,"description":"Mr. Go 2013 BluRayRip.mp4\n\nFormat                                   : MPEG-4\nFormat profile                           : Base Media / Version 2\nCodec ID                                 : mp42\nFile size                                : 950 MiB\nDuration                                 : 2h 12mn\nOverall bit rate                         : 999 Kbps\nWriting library                          : AVS \n\nVideo\nID                                       : 1\nFormat                                   : AVC\nFormat/Info                              : Advanced Video Codec\nFormat profile                           : &lt;a class=&quot;__cf_email__&quot; href=&quot;/cdn-cgi/l/email-protection&quot; data-cfemail=&quot;de93bfb7b09e92ebf0ef&quot;&gt;[email&amp;#160;protected]&lt;/a&gt;&lt;script cf-hash='f9e31' type=&quot;text/javascript&quot;&gt;\n/* &lt;![CDATA[ */!function(){try{var t=&quot;currentScript&quot;in document?document.currentScript:function(){for(var t=document.getElementsByTagName(&quot;script&quot;),e=t.length;e--;)if(t[e].getAttribute(&quot;cf-hash&quot;))return t[e]}();if(t&amp;&amp;t.previousSibling){var e,r,n,i,c=t.previousSibling,a=c.getAttribute(&quot;data-cfemail&quot;);if(a){for(e=&quot;&quot;,r=parseInt(a.substr(0,2),16),n=2;a.length-n;n+=2)i=parseInt(a.substr(n,2),16)^r,e+=String.fromCharCode(i);e=document.createTextNode(e),c.parentNode.replaceChild(e,c)}}}catch(u){}}();/* ]]&gt; */&lt;/script&gt;\nFormat settings, CABAC                   : Yes\nFormat settings, ReFrames                : 1 frame\nCodec ID                                 : avc1\nCodec ID/Info                            : Advanced Video Coding\nDuration                                 : 2h 12mn\nSource duration                          : 2h 12mn\nBit rate                                 : 870 Kbps\nWidth                                    : 1 280 pixels\nHeight                                   : 688 pixels\nDisplay aspect ratio                     : 1.85:1\nFrame rate mode                          : Constant\nFrame rate                               : 23.976 fps\nColor space                              : YUV\nChroma subsampling                       : 4:2:0\nBit depth                                : 8 bits\nScan type                                : Progressive\nBits/(Pixel*Frame)                       : 0.041\nStream size                              : 827 MiB (87%)\nSource stream size                       : 827 MiB (87%)\nLanguage                                 : English\nColor primaries                          : BT.709\nTransfer characteristics                 : BT.709\nMatrix coefficients                      : BT.709\nmdhd_Duration                            : 7974933\n\nAudio\n\nID                                       : 2\nFormat                                   : AAC\nFormat/Info                              : Advanced Audio Codec\nFormat profile                           : LC\nCodec ID                                 : 40\nDuration                                 : 2h 12mn\nBit rate mode                            : Constant\nBit rate                                 : 128 Kbps\nChannel(s)                               : 2 channels\nChannel positions                        : Front: L R\nSampling rate                            : 48.0 KHz\nCompression mode                         : Lossy\nStream size                              : 119 MiB (13%)\nLanguage                                 : English\n\n\nPlot\n\nYoung circus ringmaster Wei Wei has only bat-swinging gorilla Ling Ling to depend on as her only family member and friend, when her grandfather dies in the Great Sichuan Earthquake, leaving behind an insurmountable debt. When a loan shark threatens to sell Ling Ling and the circus kids to cover the debt, Wei Wei has no choice but to allow Ling Ling to be scouted in the Korean Baseball League by the materialistic sports agent Sung. Ling Ling, now dubbed &quot;Mr. Go,&quot; becomes an instant hit with fans and leads his team Doosan Bears to a miraculous winning streak.\n\n\n\n\n* enjoy ...","torrent":{"xt":"urn:btih:b825469bafba9f411d4cb356437e8d55dc0364b1","amp;dn":"Mr.+Go+2013+BluRayRip.mp4","amp;tr":["udp%3A%2F%2Ftracker.openbittorrent.com%3A80","udp%3A%2F%2Fopen.demonii.com%3A1337","udp%3A%2F%2Ftracker.coppersurfer.tk%3A6969","udp%3A%2F%2Fexodus.desync.com%3A6969"],"infoHash":"b825469bafba9f411d4cb356437e8d55dc0364b1","infoHashBuffer":{"type":"Buffer","data":[184,37,70,155,175,186,159,65,29,76,179,86,67,126,141,85,220,3,100,177]},"announce":[],"urlList":[]}}